G04 #@! TF.GenerationSoftware,KiCad,Pcbnew,8.0.2*
G04 #@! TF.CreationDate,2024-07-25T20:56:56+08:00*
G04 #@! TF.ProjectId,hitbox,68697462-6f78-42e6-9b69-6361645f7063,rev?*
G04 #@! TF.SameCoordinates,Original*
G04 #@! TF.FileFunction,Copper,L2,Bot*
G04 #@! TF.FilePolarity,Positive*
%FSLAX46Y46*%
G04 Gerber Fmt 4.6, Leading zero omitted, Abs format (unit mm)*
G04 Created by KiCad (PCBNEW 8.0.2) date 2024-07-25 20:56:56*
%MOMM*%
%LPD*%
G01*
G04 APERTURE LIST*
G04 Aperture macros list*
%AMRoundRect*
0 Rectangle with rounded corners*
0 $1 Rounding radius*
0 $2 $3 $4 $5 $6 $7 $8 $9 X,Y pos of 4 corners*
0 Add a 4 corners polygon primitive as box body*
4,1,4,$2,$3,$4,$5,$6,$7,$8,$9,$2,$3,0*
0 Add four circle primitives for the rounded corners*
1,1,$1+$1,$2,$3*
1,1,$1+$1,$4,$5*
1,1,$1+$1,$6,$7*
1,1,$1+$1,$8,$9*
0 Add four rect primitives between the rounded corners*
20,1,$1+$1,$2,$3,$4,$5,0*
20,1,$1+$1,$4,$5,$6,$7,0*
20,1,$1+$1,$6,$7,$8,$9,0*
20,1,$1+$1,$8,$9,$2,$3,0*%
G04 Aperture macros list end*
G04 #@! TA.AperFunction,ComponentPad*
%ADD10C,2.200000*%
G04 #@! TD*
G04 #@! TA.AperFunction,ComponentPad*
%ADD11R,1.600000X1.600000*%
G04 #@! TD*
G04 #@! TA.AperFunction,ComponentPad*
%ADD12O,1.600000X1.600000*%
G04 #@! TD*
G04 #@! TA.AperFunction,ComponentPad*
%ADD13R,1.700000X1.700000*%
G04 #@! TD*
G04 #@! TA.AperFunction,ComponentPad*
%ADD14O,1.700000X1.700000*%
G04 #@! TD*
G04 #@! TA.AperFunction,ComponentPad*
%ADD15RoundRect,0.250000X1.125000X-1.125000X1.125000X1.125000X-1.125000X1.125000X-1.125000X-1.125000X0*%
G04 #@! TD*
G04 #@! TA.AperFunction,ComponentPad*
%ADD16C,2.750000*%
G04 #@! TD*
G04 #@! TA.AperFunction,ComponentPad*
%ADD17C,1.600000*%
G04 #@! TD*
G04 #@! TA.AperFunction,ComponentPad*
%ADD18C,1.700000*%
G04 #@! TD*
G04 #@! TA.AperFunction,ComponentPad*
%ADD19R,3.500000X3.500000*%
G04 #@! TD*
G04 #@! TA.AperFunction,ComponentPad*
%ADD20R,3.000000X3.000000*%
G04 #@! TD*
G04 #@! TA.AperFunction,Conductor*
%ADD21C,0.200000*%
G04 #@! TD*
G04 APERTURE END LIST*
D10*
X240897500Y-28080000D03*
X247247500Y-25540000D03*
X169460000Y-28080000D03*
X175810000Y-25540000D03*
X193272500Y-28080000D03*
X199622500Y-25540000D03*
D11*
X-8240000Y-18380000D03*
D12*
X-8240000Y-20920000D03*
X-8240000Y-23460000D03*
X-8240000Y-26000000D03*
X-8240000Y-28540000D03*
X-8240000Y-31080000D03*
X-8240000Y-33620000D03*
X-8240000Y-36160000D03*
X-8240000Y-38700000D03*
X-8240000Y-41240000D03*
X-8240000Y-43780000D03*
X-8240000Y-46320000D03*
X7000000Y-46320000D03*
X7000000Y-43780000D03*
X7000000Y-41240000D03*
X7000000Y-38700000D03*
X7000000Y-36160000D03*
X7000000Y-33620000D03*
X7000000Y-31080000D03*
X7000000Y-28540000D03*
X7000000Y-26000000D03*
X7000000Y-23460000D03*
X7000000Y-20920000D03*
X7000000Y-18380000D03*
D10*
X217085000Y-28080000D03*
X223435000Y-25540000D03*
D13*
X-22860000Y-42300000D03*
D14*
X-22860000Y-44840000D03*
X-22860000Y-47380000D03*
X-22860000Y-49920000D03*
X-22860000Y-52460000D03*
X-22860000Y-55000000D03*
X-22860000Y-57540000D03*
X-22860000Y-60080000D03*
X-22860000Y-62620000D03*
X-22860000Y-65160000D03*
X-22860000Y-67700000D03*
X-22860000Y-70240000D03*
D13*
X92300000Y-17000000D03*
D14*
X94840000Y-17000000D03*
X97380000Y-17000000D03*
X99920000Y-17000000D03*
X102460000Y-17000000D03*
X105000000Y-17000000D03*
X107540000Y-17000000D03*
X110080000Y-17000000D03*
X112620000Y-17000000D03*
X115160000Y-17000000D03*
X117700000Y-17000000D03*
X120240000Y-17000000D03*
X122780000Y-17000000D03*
X125320000Y-17000000D03*
X127860000Y-17000000D03*
X130400000Y-17000000D03*
X132940000Y-17000000D03*
X135480000Y-17000000D03*
X138020000Y-17000000D03*
X140560000Y-17000000D03*
D15*
X15000000Y-67000000D03*
D16*
X15000000Y-61600000D03*
D11*
X115000000Y-46402651D03*
D17*
X115000000Y-41402651D03*
D15*
X137000000Y-53400000D03*
D16*
X137000000Y-48000000D03*
X137000000Y-42600000D03*
D18*
X21100000Y-51400000D03*
X21180000Y-48860000D03*
X21180000Y-46320000D03*
D19*
X50100000Y-53400000D03*
X50100000Y-48400000D03*
X50100000Y-43400000D03*
D20*
X65100000Y-58400000D03*
X65100000Y-41400000D03*
X105100000Y-58400000D03*
X105100000Y-41400000D03*
D17*
X127000000Y-46810000D03*
D12*
X127000000Y-39190000D03*
D21*
X136202651Y-41802651D02*
X137000000Y-42600000D01*
X136590000Y-47590000D02*
X137000000Y-48000000D01*
M02*
