G04 #@! TF.GenerationSoftware,KiCad,Pcbnew,8.0.2*
G04 #@! TF.CreationDate,2024-07-25T20:56:56+08:00*
G04 #@! TF.ProjectId,hitbox,68697462-6f78-42e6-9b69-6361645f7063,rev?*
G04 #@! TF.SameCoordinates,Original*
G04 #@! TF.FileFunction,Copper,L1,Top*
G04 #@! TF.FilePolarity,Positive*
%FSLAX46Y46*%
G04 Gerber Fmt 4.6, Leading zero omitted, Abs format (unit mm)*
G04 Created by KiCad (PCBNEW 8.0.2) date 2024-07-25 20:56:56*
%MOMM*%
%LPD*%
G01*
G04 APERTURE LIST*
G04 Aperture macros list*
%AMRoundRect*
0 Rectangle with rounded corners*
0 $1 Rounding radius*
0 $2 $3 $4 $5 $6 $7 $8 $9 X,Y pos of 4 corners*
0 Add a 4 corners polygon primitive as box body*
4,1,4,$2,$3,$4,$5,$6,$7,$8,$9,$2,$3,0*
0 Add four circle primitives for the rounded corners*
1,1,$1+$1,$2,$3*
1,1,$1+$1,$4,$5*
1,1,$1+$1,$6,$7*
1,1,$1+$1,$8,$9*
0 Add four rect primitives between the rounded corners*
20,1,$1+$1,$2,$3,$4,$5,0*
20,1,$1+$1,$4,$5,$6,$7,0*
20,1,$1+$1,$6,$7,$8,$9,0*
20,1,$1+$1,$8,$9,$2,$3,0*%
G04 Aperture macros list end*
G04 #@! TA.AperFunction,ComponentPad*
%ADD10C,2.200000*%
G04 #@! TD*
G04 #@! TA.AperFunction,ComponentPad*
%ADD11R,1.600000X1.600000*%
G04 #@! TD*
G04 #@! TA.AperFunction,ComponentPad*
%ADD12O,1.600000X1.600000*%
G04 #@! TD*
G04 #@! TA.AperFunction,ComponentPad*
%ADD13R,1.700000X1.700000*%
G04 #@! TD*
G04 #@! TA.AperFunction,ComponentPad*
%ADD14O,1.700000X1.700000*%
G04 #@! TD*
G04 #@! TA.AperFunction,ComponentPad*
%ADD15RoundRect,0.250000X1.125000X-1.125000X1.125000X1.125000X-1.125000X1.125000X-1.125000X-1.125000X0*%
G04 #@! TD*
G04 #@! TA.AperFunction,ComponentPad*
%ADD16C,2.750000*%
G04 #@! TD*
G04 #@! TA.AperFunction,ComponentPad*
%ADD17C,1.600000*%
G04 #@! TD*
G04 #@! TA.AperFunction,ComponentPad*
%ADD18C,1.700000*%
G04 #@! TD*
G04 #@! TA.AperFunction,ComponentPad*
%ADD19R,3.500000X3.500000*%
G04 #@! TD*
G04 #@! TA.AperFunction,ComponentPad*
%ADD20R,3.000000X3.000000*%
G04 #@! TD*
G04 #@! TA.AperFunction,Conductor*
%ADD21C,0.200000*%
G04 #@! TD*
G04 APERTURE END LIST*
D10*
X240897500Y-28080000D03*
X247247500Y-25540000D03*
X169460000Y-28080000D03*
X175810000Y-25540000D03*
X193272500Y-28080000D03*
X199622500Y-25540000D03*
D11*
X-8240000Y-18380000D03*
D12*
X-8240000Y-20920000D03*
X-8240000Y-23460000D03*
X-8240000Y-26000000D03*
X-8240000Y-28540000D03*
X-8240000Y-31080000D03*
X-8240000Y-33620000D03*
X-8240000Y-36160000D03*
X-8240000Y-38700000D03*
X-8240000Y-41240000D03*
X-8240000Y-43780000D03*
X-8240000Y-46320000D03*
X7000000Y-46320000D03*
X7000000Y-43780000D03*
X7000000Y-41240000D03*
X7000000Y-38700000D03*
X7000000Y-36160000D03*
X7000000Y-33620000D03*
X7000000Y-31080000D03*
X7000000Y-28540000D03*
X7000000Y-26000000D03*
X7000000Y-23460000D03*
X7000000Y-20920000D03*
X7000000Y-18380000D03*
D10*
X217085000Y-28080000D03*
X223435000Y-25540000D03*
D13*
X-22860000Y-42300000D03*
D14*
X-22860000Y-44840000D03*
X-22860000Y-47380000D03*
X-22860000Y-49920000D03*
X-22860000Y-52460000D03*
X-22860000Y-55000000D03*
X-22860000Y-57540000D03*
X-22860000Y-60080000D03*
X-22860000Y-62620000D03*
X-22860000Y-65160000D03*
X-22860000Y-67700000D03*
X-22860000Y-70240000D03*
D13*
X92300000Y-17000000D03*
D14*
X94840000Y-17000000D03*
X97380000Y-17000000D03*
X99920000Y-17000000D03*
X102460000Y-17000000D03*
X105000000Y-17000000D03*
X107540000Y-17000000D03*
X110080000Y-17000000D03*
X112620000Y-17000000D03*
X115160000Y-17000000D03*
X117700000Y-17000000D03*
X120240000Y-17000000D03*
X122780000Y-17000000D03*
X125320000Y-17000000D03*
X127860000Y-17000000D03*
X130400000Y-17000000D03*
X132940000Y-17000000D03*
X135480000Y-17000000D03*
X138020000Y-17000000D03*
X140560000Y-17000000D03*
D15*
X15000000Y-67000000D03*
D16*
X15000000Y-61600000D03*
D11*
X115000000Y-46402651D03*
D17*
X115000000Y-41402651D03*
D15*
X137000000Y-53400000D03*
D16*
X137000000Y-48000000D03*
X137000000Y-42600000D03*
D18*
X21100000Y-51400000D03*
X21180000Y-48860000D03*
X21180000Y-46320000D03*
D19*
X50100000Y-53400000D03*
X50100000Y-48400000D03*
X50100000Y-43400000D03*
D20*
X65100000Y-58400000D03*
X65100000Y-41400000D03*
X105100000Y-58400000D03*
X105100000Y-41400000D03*
D17*
X127000000Y-46810000D03*
D12*
X127000000Y-39190000D03*
D21*
X-8240000Y-28540000D02*
X-17780000Y-38080000D01*
X-17780000Y-38080000D02*
X-17780000Y-42300000D01*
X-17780000Y-42300000D02*
X-22860000Y-47380000D01*
X7000000Y-38700000D02*
X7510000Y-38190000D01*
X124810000Y-37000000D02*
X127000000Y-39190000D01*
X40300000Y-38700000D02*
X42000000Y-37000000D01*
X42000000Y-37000000D02*
X124810000Y-37000000D01*
X7000000Y-38700000D02*
X40300000Y-38700000D01*
X-8240000Y-43780000D02*
X-10160000Y-45700000D01*
X-10160000Y-45700000D02*
X-10160000Y-52070000D01*
X-20710000Y-62620000D02*
X-22860000Y-62620000D01*
X-10160000Y-52070000D02*
X-20710000Y-62620000D01*
X-19050000Y-41030000D02*
X-22860000Y-44840000D01*
X-19050000Y-31730000D02*
X-19050000Y-41030000D01*
X-8240000Y-20920000D02*
X-19050000Y-31730000D01*
X-8240000Y-31080000D02*
X-16510000Y-39350000D01*
X-16510000Y-39350000D02*
X-16510000Y-43570000D01*
X-16510000Y-43570000D02*
X-22860000Y-49920000D01*
X-2240000Y-70240000D02*
X-22860000Y-70240000D01*
X27000000Y-53000000D02*
X24000000Y-56000000D01*
X22240000Y-41240000D02*
X27000000Y-46000000D01*
X7000000Y-41240000D02*
X22240000Y-41240000D01*
X12000000Y-56000000D02*
X-2240000Y-70240000D01*
X24000000Y-56000000D02*
X12000000Y-56000000D01*
X27000000Y-46000000D02*
X27000000Y-53000000D01*
X21180000Y-46320000D02*
X7000000Y-46320000D01*
X7400000Y-45920000D02*
X7000000Y-46320000D01*
X42000000Y-28000000D02*
X38920000Y-31080000D01*
X160080000Y-31080000D02*
X157000000Y-28000000D01*
X193272500Y-28080000D02*
X190272500Y-31080000D01*
X38920000Y-31080000D02*
X7000000Y-31080000D01*
X190272500Y-31080000D02*
X160080000Y-31080000D01*
X157000000Y-28000000D02*
X42000000Y-28000000D01*
X23000000Y-55000000D02*
X0Y-55000000D01*
X22780000Y-43780000D02*
X25000000Y-46000000D01*
X25000000Y-46000000D02*
X25000000Y-53000000D01*
X0Y-55000000D02*
X-12700000Y-67700000D01*
X7000000Y-43780000D02*
X22780000Y-43780000D01*
X-12700000Y-67700000D02*
X-22860000Y-67700000D01*
X25000000Y-53000000D02*
X23000000Y-55000000D01*
X157000000Y-25000000D02*
X42000000Y-25000000D01*
X42000000Y-25000000D02*
X39000000Y-28000000D01*
X7460000Y-28080000D02*
X7000000Y-28540000D01*
X169460000Y-28080000D02*
X160080000Y-28080000D01*
X39000000Y-28080000D02*
X7460000Y-28080000D01*
X39000000Y-28000000D02*
X39000000Y-28080000D01*
X160080000Y-28080000D02*
X157000000Y-25000000D01*
X-8255000Y-55245000D02*
X-18170000Y-65160000D01*
X-8255000Y-52705000D02*
X-8255000Y-55245000D01*
X-8240000Y-52690000D02*
X-8255000Y-52705000D01*
X-18170000Y-65160000D02*
X-22860000Y-65160000D01*
X-8240000Y-46320000D02*
X-8240000Y-52690000D01*
X232840000Y-36160000D02*
X233000000Y-36000000D01*
X7000000Y-36160000D02*
X39840000Y-36160000D01*
X160000000Y-36160000D02*
X232840000Y-36160000D01*
X233000000Y-36000000D02*
X233000000Y-35977500D01*
X42000000Y-34000000D02*
X157840000Y-34000000D01*
X39840000Y-36160000D02*
X42000000Y-34000000D01*
X233000000Y-35977500D02*
X240897500Y-28080000D01*
X157840000Y-34000000D02*
X160000000Y-36160000D01*
X-8240000Y-18380000D02*
X-22860000Y-33000000D01*
X-22860000Y-33000000D02*
X-22860000Y-42300000D01*
X211545000Y-33620000D02*
X217085000Y-28080000D01*
X42000000Y-31000000D02*
X157000000Y-31000000D01*
X159620000Y-33620000D02*
X211545000Y-33620000D01*
X7000000Y-33620000D02*
X39380000Y-33620000D01*
X39380000Y-33620000D02*
X42000000Y-31000000D01*
X157000000Y-31000000D02*
X159620000Y-33620000D01*
X65100000Y-58400000D02*
X43600000Y-58400000D01*
X35000000Y-67000000D02*
X15000000Y-67000000D01*
X43600000Y-58400000D02*
X35000000Y-67000000D01*
X135802651Y-41402651D02*
X137000000Y-42600000D01*
X105100000Y-41400000D02*
X114997349Y-41400000D01*
X114997349Y-41400000D02*
X115000000Y-41402651D01*
X115000000Y-41402651D02*
X135802651Y-41402651D01*
X50100000Y-48400000D02*
X41600000Y-48400000D01*
X-5080000Y-15240000D02*
X-5080000Y-20300000D01*
X-27940000Y-74930000D02*
X-27940000Y-33020000D01*
X-27940000Y-33020000D02*
X-10160000Y-15240000D01*
X-10160000Y-15240000D02*
X-5080000Y-15240000D01*
X-5080000Y-20300000D02*
X-8240000Y-23460000D01*
X15000000Y-61600000D02*
X12400000Y-61600000D01*
X41600000Y-48400000D02*
X28400000Y-61600000D01*
X-25400000Y-77470000D02*
X-27940000Y-74930000D01*
X-3470000Y-77470000D02*
X-25400000Y-77470000D01*
X12400000Y-61600000D02*
X-3470000Y-77470000D01*
X28400000Y-61600000D02*
X15000000Y-61600000D01*
X132940000Y-17000000D02*
X130400000Y-17000000D01*
X155460000Y-17000000D02*
X140560000Y-17000000D01*
X2000000Y-46000000D02*
X10000000Y-54000000D01*
X247247500Y-25540000D02*
X223435000Y-25540000D01*
X125320000Y-17000000D02*
X122780000Y-17000000D01*
X122780000Y-17000000D02*
X120240000Y-17000000D01*
X107540000Y-17000000D02*
X110080000Y-17000000D01*
X135480000Y-17000000D02*
X132940000Y-17000000D01*
X138020000Y-17000000D02*
X140160000Y-17000000D01*
X7000000Y-20920000D02*
X2000000Y-25920000D01*
X199622500Y-25540000D02*
X223435000Y-25540000D01*
X88380000Y-20920000D02*
X92300000Y-17000000D01*
X97380000Y-17000000D02*
X94840000Y-17000000D01*
X115160000Y-17000000D02*
X112620000Y-17000000D01*
X105000000Y-17000000D02*
X102460000Y-17000000D01*
X140810000Y-16750000D02*
X140560000Y-17000000D01*
X7000000Y-20920000D02*
X88380000Y-20920000D01*
X22000000Y-54000000D02*
X24000000Y-52000000D01*
X107540000Y-17000000D02*
X105000000Y-17000000D01*
X130400000Y-17000000D02*
X127860000Y-17000000D01*
X112620000Y-17000000D02*
X110080000Y-17000000D01*
X24000000Y-50000000D02*
X22860000Y-48860000D01*
X24000000Y-52000000D02*
X24000000Y-50000000D01*
X127860000Y-17000000D02*
X125320000Y-17000000D01*
X199622500Y-25540000D02*
X175810000Y-25540000D01*
X175810000Y-25540000D02*
X164000000Y-25540000D01*
X164000000Y-25540000D02*
X155460000Y-17000000D01*
X94840000Y-17000000D02*
X92300000Y-17000000D01*
X138020000Y-17000000D02*
X135480000Y-17000000D01*
X102460000Y-17000000D02*
X99920000Y-17000000D01*
X10000000Y-54000000D02*
X22000000Y-54000000D01*
X2000000Y-25920000D02*
X2000000Y-46000000D01*
X120240000Y-17000000D02*
X117700000Y-17000000D01*
X97380000Y-17000000D02*
X99920000Y-17000000D01*
X115160000Y-17000000D02*
X117700000Y-17000000D01*
X22860000Y-48860000D02*
X21180000Y-48860000D01*
X4000000Y-46000000D02*
X9400000Y-51400000D01*
X9400000Y-51400000D02*
X21100000Y-51400000D01*
X7000000Y-26000000D02*
X4000000Y-29000000D01*
X4000000Y-29000000D02*
X4000000Y-46000000D01*
X50100000Y-43400000D02*
X50100000Y-43600000D01*
X50100000Y-43400000D02*
X63100000Y-43400000D01*
X63100000Y-43400000D02*
X65100000Y-41400000D01*
X-8240000Y-41240000D02*
X-11430000Y-44430000D01*
X-11430000Y-44430000D02*
X-11430000Y-48650000D01*
X-11430000Y-48650000D02*
X-22860000Y-60080000D01*
X-15240000Y-40620000D02*
X-15240000Y-44840000D01*
X-15240000Y-44840000D02*
X-22860000Y-52460000D01*
X-8240000Y-33620000D02*
X-15240000Y-40620000D01*
X-12700000Y-47380000D02*
X-22860000Y-57540000D01*
X-12700000Y-43160000D02*
X-12700000Y-47380000D01*
X-8240000Y-38700000D02*
X-12700000Y-43160000D01*
X-13970000Y-41890000D02*
X-13970000Y-46110000D01*
X-8240000Y-36160000D02*
X-13970000Y-41890000D01*
X-13970000Y-46110000D02*
X-22860000Y-55000000D01*
X105100000Y-58400000D02*
X115000000Y-58400000D01*
X115000000Y-58400000D02*
X132000000Y-58400000D01*
X115000000Y-46402651D02*
X115000000Y-58400000D01*
X132000000Y-58400000D02*
X137000000Y-53400000D01*
X127000000Y-46810000D02*
X128190000Y-48000000D01*
X128190000Y-48000000D02*
X137000000Y-48000000D01*
M02*
