G04 #@! TF.GenerationSoftware,KiCad,Pcbnew,8.0.2*
G04 #@! TF.CreationDate,2024-07-25T20:56:57+08:00*
G04 #@! TF.ProjectId,hitbox,68697462-6f78-42e6-9b69-6361645f7063,rev?*
G04 #@! TF.SameCoordinates,Original*
G04 #@! TF.FileFunction,Profile,NP*
%FSLAX46Y46*%
G04 Gerber Fmt 4.6, Leading zero omitted, Abs format (unit mm)*
G04 Created by KiCad (PCBNEW 8.0.2) date 2024-07-25 20:56:57*
%MOMM*%
%LPD*%
G01*
G04 APERTURE LIST*
G04 #@! TA.AperFunction,Profile*
%ADD10C,0.050000*%
G04 #@! TD*
G04 APERTURE END LIST*
D10*
X-30000000Y-10000000D02*
X320000000Y-10000000D01*
X320000000Y-190000000D01*
X-30000000Y-190000000D01*
X-30000000Y-10000000D01*
X197250000Y-59000000D02*
G75*
G02*
X167250000Y-59000000I-15000000J0D01*
G01*
X167250000Y-59000000D02*
G75*
G02*
X197250000Y-59000000I15000000J0D01*
G01*
X128500000Y-95000000D02*
G75*
G02*
X103500000Y-95000000I-12500000J0D01*
G01*
X103500000Y-95000000D02*
G75*
G02*
X128500000Y-95000000I12500000J0D01*
G01*
X166000000Y-77000000D02*
G75*
G02*
X136000000Y-77000000I-15000000J0D01*
G01*
X136000000Y-77000000D02*
G75*
G02*
X166000000Y-77000000I15000000J0D01*
G01*
X197250000Y-95000000D02*
G75*
G02*
X167250000Y-95000000I-15000000J0D01*
G01*
X167250000Y-95000000D02*
G75*
G02*
X197250000Y-95000000I15000000J0D01*
G01*
X72500000Y-80000000D02*
G75*
G02*
X47500000Y-80000000I-12500000J0D01*
G01*
X47500000Y-80000000D02*
G75*
G02*
X72500000Y-80000000I12500000J0D01*
G01*
X166000000Y-113000000D02*
G75*
G02*
X136000000Y-113000000I-15000000J0D01*
G01*
X136000000Y-113000000D02*
G75*
G02*
X166000000Y-113000000I15000000J0D01*
G01*
X268250000Y-68000000D02*
G75*
G02*
X238250000Y-68000000I-15000000J0D01*
G01*
X238250000Y-68000000D02*
G75*
G02*
X268250000Y-68000000I15000000J0D01*
G01*
X102500000Y-80000000D02*
G75*
G02*
X77500000Y-80000000I-12500000J0D01*
G01*
X77500000Y-80000000D02*
G75*
G02*
X102500000Y-80000000I12500000J0D01*
G01*
X268250000Y-104000000D02*
G75*
G02*
X238250000Y-104000000I-15000000J0D01*
G01*
X238250000Y-104000000D02*
G75*
G02*
X268250000Y-104000000I15000000J0D01*
G01*
X146000000Y-149000000D02*
G75*
G02*
X116000000Y-149000000I-15000000J0D01*
G01*
X116000000Y-149000000D02*
G75*
G02*
X146000000Y-149000000I15000000J0D01*
G01*
X233250000Y-59000000D02*
G75*
G02*
X203250000Y-59000000I-15000000J0D01*
G01*
X203250000Y-59000000D02*
G75*
G02*
X233250000Y-59000000I15000000J0D01*
G01*
X233250000Y-95000000D02*
G75*
G02*
X203250000Y-95000000I-15000000J0D01*
G01*
X203250000Y-95000000D02*
G75*
G02*
X233250000Y-95000000I15000000J0D01*
G01*
M02*
