M48
; DRILL file {KiCad 8.0.2} date 2024-07-25T20:56:59+0800
; FORMAT={-:-/ absolute / metric / decimal}
; #@! TF.CreationDate,2024-07-25T20:56:59+08:00
; #@! TF.GenerationSoftware,Kicad,Pcbnew,8.0.2
; #@! TF.FileFunction,NonPlated,1,2,NPTH
FMAT,2
METRIC
; #@! TA.AperFunction,NonPlated,NPTH,ComponentDrill
T1C1.700
; #@! TA.AperFunction,NonPlated,NPTH,ComponentDrill
T2C3.200
; #@! TA.AperFunction,NonPlated,NPTH,ComponentDrill
T3C4.000
%
G90
G05
T1
X166.92Y-23.0
X177.08Y-23.0
X190.732Y-23.0
X200.892Y-23.0
X214.545Y-23.0
X224.705Y-23.0
X238.357Y-23.0
X248.517Y-23.0
T2
X-20.0Y-16.0
X-20.0Y-100.0
X-20.0Y-180.0
X60.0Y-16.0
X60.0Y-180.0
X70.0Y-100.0
X116.0Y-113.0
X130.0Y-180.0
X150.0Y-50.0
X200.0Y-77.0
X230.0Y-16.0
X230.0Y-180.0
X238.0Y-85.0
X310.0Y-16.0
X310.0Y-100.0
X310.0Y-180.0
T3
X172.0Y-23.0
X195.812Y-23.0
X219.625Y-23.0
X243.438Y-23.0
M30
