G04 #@! TF.GenerationSoftware,KiCad,Pcbnew,8.0.2*
G04 #@! TF.CreationDate,2024-07-25T20:56:57+08:00*
G04 #@! TF.ProjectId,hitbox,68697462-6f78-42e6-9b69-6361645f7063,rev?*
G04 #@! TF.SameCoordinates,Original*
G04 #@! TF.FileFunction,Soldermask,Top*
G04 #@! TF.FilePolarity,Negative*
%FSLAX46Y46*%
G04 Gerber Fmt 4.6, Leading zero omitted, Abs format (unit mm)*
G04 Created by KiCad (PCBNEW 8.0.2) date 2024-07-25 20:56:57*
%MOMM*%
%LPD*%
G01*
G04 APERTURE LIST*
G04 Aperture macros list*
%AMRoundRect*
0 Rectangle with rounded corners*
0 $1 Rounding radius*
0 $2 $3 $4 $5 $6 $7 $8 $9 X,Y pos of 4 corners*
0 Add a 4 corners polygon primitive as box body*
4,1,4,$2,$3,$4,$5,$6,$7,$8,$9,$2,$3,0*
0 Add four circle primitives for the rounded corners*
1,1,$1+$1,$2,$3*
1,1,$1+$1,$4,$5*
1,1,$1+$1,$6,$7*
1,1,$1+$1,$8,$9*
0 Add four rect primitives between the rounded corners*
20,1,$1+$1,$2,$3,$4,$5,0*
20,1,$1+$1,$4,$5,$6,$7,0*
20,1,$1+$1,$6,$7,$8,$9,0*
20,1,$1+$1,$8,$9,$2,$3,0*%
G04 Aperture macros list end*
%ADD10C,3.200000*%
%ADD11C,1.700000*%
%ADD12C,4.000000*%
%ADD13C,2.200000*%
%ADD14R,1.600000X1.600000*%
%ADD15O,1.600000X1.600000*%
%ADD16R,1.700000X1.700000*%
%ADD17O,1.700000X1.700000*%
%ADD18RoundRect,0.250000X1.125000X-1.125000X1.125000X1.125000X-1.125000X1.125000X-1.125000X-1.125000X0*%
%ADD19C,2.750000*%
%ADD20C,1.600000*%
%ADD21R,3.500000X3.500000*%
%ADD22R,3.000000X3.000000*%
G04 APERTURE END LIST*
D10*
X230000000Y-180000000D03*
X-20000000Y-100000000D03*
X230000000Y-16000000D03*
D11*
X248517500Y-23000000D03*
D12*
X243437500Y-23000000D03*
D11*
X238357500Y-23000000D03*
D13*
X240897500Y-28080000D03*
X247247500Y-25540000D03*
D10*
X60000000Y-180000000D03*
X150000000Y-50000000D03*
D11*
X177080000Y-23000000D03*
D12*
X172000000Y-23000000D03*
D11*
X166920000Y-23000000D03*
D13*
X169460000Y-28080000D03*
X175810000Y-25540000D03*
D11*
X200892500Y-23000000D03*
D12*
X195812500Y-23000000D03*
D11*
X190732500Y-23000000D03*
D13*
X193272500Y-28080000D03*
X199622500Y-25540000D03*
D10*
X310000000Y-16000000D03*
D14*
X-8240000Y-18380000D03*
D15*
X-8240000Y-20920000D03*
X-8240000Y-23460000D03*
X-8240000Y-26000000D03*
X-8240000Y-28540000D03*
X-8240000Y-31080000D03*
X-8240000Y-33620000D03*
X-8240000Y-36160000D03*
X-8240000Y-38700000D03*
X-8240000Y-41240000D03*
X-8240000Y-43780000D03*
X-8240000Y-46320000D03*
X7000000Y-46320000D03*
X7000000Y-43780000D03*
X7000000Y-41240000D03*
X7000000Y-38700000D03*
X7000000Y-36160000D03*
X7000000Y-33620000D03*
X7000000Y-31080000D03*
X7000000Y-28540000D03*
X7000000Y-26000000D03*
X7000000Y-23460000D03*
X7000000Y-20920000D03*
X7000000Y-18380000D03*
D10*
X116000000Y-113000000D03*
D11*
X224705000Y-23000000D03*
D12*
X219625000Y-23000000D03*
D11*
X214545000Y-23000000D03*
D13*
X217085000Y-28080000D03*
X223435000Y-25540000D03*
D10*
X310000000Y-180000000D03*
D16*
X-22860000Y-42300000D03*
D17*
X-22860000Y-44840000D03*
X-22860000Y-47380000D03*
X-22860000Y-49920000D03*
X-22860000Y-52460000D03*
X-22860000Y-55000000D03*
X-22860000Y-57540000D03*
X-22860000Y-60080000D03*
X-22860000Y-62620000D03*
X-22860000Y-65160000D03*
X-22860000Y-67700000D03*
X-22860000Y-70240000D03*
D10*
X-20000000Y-16000000D03*
X60000000Y-16000000D03*
D16*
X92300000Y-17000000D03*
D17*
X94840000Y-17000000D03*
X97380000Y-17000000D03*
X99920000Y-17000000D03*
X102460000Y-17000000D03*
X105000000Y-17000000D03*
X107540000Y-17000000D03*
X110080000Y-17000000D03*
X112620000Y-17000000D03*
X115160000Y-17000000D03*
X117700000Y-17000000D03*
X120240000Y-17000000D03*
X122780000Y-17000000D03*
X125320000Y-17000000D03*
X127860000Y-17000000D03*
X130400000Y-17000000D03*
X132940000Y-17000000D03*
X135480000Y-17000000D03*
X138020000Y-17000000D03*
X140560000Y-17000000D03*
D10*
X-20000000Y-180000000D03*
X310000000Y-100000000D03*
X130000000Y-180000000D03*
X200000000Y-77000000D03*
X70000000Y-100000000D03*
X238000000Y-85000000D03*
D18*
X15000000Y-67000000D03*
D19*
X15000000Y-61600000D03*
D14*
X115000000Y-46402651D03*
D20*
X115000000Y-41402651D03*
D18*
X137000000Y-53400000D03*
D19*
X137000000Y-48000000D03*
X137000000Y-42600000D03*
D11*
X21100000Y-51400000D03*
X21180000Y-48860000D03*
X21180000Y-46320000D03*
D21*
X50100000Y-53400000D03*
X50100000Y-48400000D03*
X50100000Y-43400000D03*
D22*
X65100000Y-58400000D03*
X65100000Y-41400000D03*
X105100000Y-58400000D03*
X105100000Y-41400000D03*
D20*
X127000000Y-46810000D03*
D15*
X127000000Y-39190000D03*
M02*
