M48
; DRILL file {KiCad 8.0.2} date 2024-07-25T20:56:59+0800
; FORMAT={-:-/ absolute / metric / decimal}
; #@! TF.CreationDate,2024-07-25T20:56:59+08:00
; #@! TF.GenerationSoftware,Kicad,Pcbnew,8.0.2
; #@! TF.FileFunction,Plated,1,2,PTH
FMAT,2
METRIC
; #@! TA.AperFunction,Plated,PTH,ComponentDrill
T1C0.800
; #@! TA.AperFunction,Plated,PTH,ComponentDrill
T2C1.000
; #@! TA.AperFunction,Plated,PTH,ComponentDrill
T3C1.200
; #@! TA.AperFunction,Plated,PTH,ComponentDrill
T4C1.500
; #@! TA.AperFunction,Plated,PTH,ComponentDrill
T5C1.750
; #@! TA.AperFunction,Plated,PTH,ComponentDrill
T6C2.000
; #@! TA.AperFunction,Plated,PTH,ComponentDrill
T7C2.500
%
G90
G05
T1
X-8.24Y-18.38
X-8.24Y-20.92
X-8.24Y-23.46
X-8.24Y-26.0
X-8.24Y-28.54
X-8.24Y-31.08
X-8.24Y-33.62
X-8.24Y-36.16
X-8.24Y-38.7
X-8.24Y-41.24
X-8.24Y-43.78
X-8.24Y-46.32
X7.0Y-18.38
X7.0Y-20.92
X7.0Y-23.46
X7.0Y-26.0
X7.0Y-28.54
X7.0Y-31.08
X7.0Y-33.62
X7.0Y-36.16
X7.0Y-38.7
X7.0Y-41.24
X7.0Y-43.78
X7.0Y-46.32
X115.0Y-41.403
X115.0Y-46.403
X127.0Y-39.19
X127.0Y-46.81
T2
X-22.86Y-42.3
X-22.86Y-44.84
X-22.86Y-47.38
X-22.86Y-49.92
X-22.86Y-52.46
X-22.86Y-55.0
X-22.86Y-57.54
X-22.86Y-60.08
X-22.86Y-62.62
X-22.86Y-65.16
X-22.86Y-67.7
X-22.86Y-70.24
X92.3Y-17.0
X94.84Y-17.0
X97.38Y-17.0
X99.92Y-17.0
X102.46Y-17.0
X105.0Y-17.0
X107.54Y-17.0
X110.08Y-17.0
X112.62Y-17.0
X115.16Y-17.0
X117.7Y-17.0
X120.24Y-17.0
X122.78Y-17.0
X125.32Y-17.0
X127.86Y-17.0
X130.4Y-17.0
X132.94Y-17.0
X135.48Y-17.0
X138.02Y-17.0
X140.56Y-17.0
T3
X21.1Y-51.4
X21.18Y-46.32
X21.18Y-48.86
T4
X169.46Y-28.08
X175.81Y-25.54
X193.272Y-28.08
X199.623Y-25.54
X217.085Y-28.08
X223.435Y-25.54
X240.897Y-28.08
X247.248Y-25.54
T5
X15.0Y-61.6
X15.0Y-67.0
X137.0Y-42.6
X137.0Y-48.0
X137.0Y-53.4
T6
X65.1Y-41.4
X65.1Y-58.4
X105.1Y-41.4
X105.1Y-58.4
T7
X50.1Y-43.4
X50.1Y-48.4
X50.1Y-53.4
M30
